<svg width="114" height="114" viewBox="0 0 114 114" fill="none" xmlns="http://www.w3.org/2000/svg">
<g id="Group">
<path id="Vector" d="M53.6489 0.333374L0.333374 27.2848V89.1965L61.0655 113.667H61.0899V113.655L113.667 82.6962V20.7943L53.6489 0.333374Z" fill="#DDD6FE"/>
<path id="Vector_2" d="M113.667 20.7943L53.6489 0.333374L0.333374 27.2848V89.1965L61.0655 113.667H61.0899V51.7355L61.0777 51.7306L113.667 20.7943Z" fill="#C4B5FD"/>
<path id="Vector_3" d="M61.0899 51.7354V113.667H61.0655L0.333374 89.1964V27.2896L7.4769 30.1655L61.0899 51.7354Z" fill="#8B5CF6"/>
<path id="Vector_4" d="M61.0898 51.7354V105.161L21.1348 89.0501C17.1016 87.4223 13.6469 84.6268 11.2142 81.0223C8.7815 77.4178 7.48172 73.1689 7.48169 68.8207V30.1655L61.0898 51.7354Z" fill="#A78BFA"/>
<path id="Vector_5" d="M88.1285 12.0809L87.0557 12.6659L35.1737 41.3038L35.0762 61.2164L26.86 58.1454L21.4962 56.1225V35.82L75.5724 7.81567L88.1285 12.0809Z" fill="#5B21B6"/>
<path id="Vector_6" d="M87.1158 12.6659L35.2338 41.3039L35.1363 61.2165L26.92 58.1455V38.5985L81.0207 10.5942L87.1158 12.6659Z" fill="#6D28D9"/>
</g>
</svg>
