<svg width="114" height="136" viewBox="0 0 114 136" fill="none" xmlns="http://www.w3.org/2000/svg">
<g id="Group">
<g id="Group_2">
<path id="Vector" d="M49.5992 86.1704C49.0447 85.5417 48.3267 85.0906 47.5306 84.8708C46.7345 84.6509 45.8939 84.6715 45.1089 84.9302L37.4217 87.4545C37.0012 87.5932 36.5572 87.6398 36.1182 87.5911C35.6792 87.5424 35.255 87.3996 34.8727 87.1718C34.4904 86.944 34.1586 86.6363 33.8985 86.2684C33.6385 85.9005 33.4559 85.4805 33.3626 85.0355L31.6379 76.91C31.4605 76.08 31.0564 75.3197 30.4733 74.719C29.8902 74.1183 29.1525 73.7022 28.3475 73.52L27.9844 73.4381L0.333252 115.203L22.8558 113.653L29.1247 136L57.3743 93.3862C56.9333 93.389 56.4966 93.2952 56.0932 93.1112C55.6898 92.9272 55.3289 92.6571 55.0342 92.3186L49.5992 86.1704Z" fill="#A78BFA"/>
<path id="Vector_2" d="M49.5993 86.1703C49.1961 85.7115 48.7046 85.3445 48.1561 85.0927C47.6076 84.8409 47.0142 84.7098 46.4138 84.7078C45.9708 84.7076 45.5306 84.7786 45.1089 84.9184L37.4218 87.4426C37.0011 87.5814 36.5569 87.628 36.1177 87.5794C35.6786 87.5307 35.2541 87.3879 34.8716 87.1601C34.4891 86.9324 34.157 86.6246 33.8967 86.2567C33.6363 85.8888 33.4534 85.4688 33.3598 85.0237L32.5088 80.9931L9.72241 114.557L22.853 113.653L26.5094 126.681L52.0983 88.9987L49.5993 86.1703ZM64.395 86.1703C64.9495 85.5416 65.6675 85.0905 66.4636 84.8706C67.2597 84.6508 68.1003 84.6714 68.8853 84.9301L76.5725 87.4543C76.993 87.5931 77.437 87.6397 77.876 87.591C78.3149 87.5423 78.7392 87.3995 79.1215 87.1717C79.5038 86.9439 79.8356 86.6362 80.0957 86.2682C80.3557 85.9003 80.5383 85.4804 80.6316 85.0354L82.3563 76.9099C82.5338 76.0803 82.9381 75.3205 83.5212 74.7202C84.1043 74.12 84.8419 73.7045 85.6467 73.5228L86.0098 73.4409L113.667 115.203L91.144 113.653L84.8752 136L56.6198 93.3861C57.0609 93.3889 57.4976 93.2951 57.901 93.1111C58.3043 92.9271 58.6653 92.6569 58.96 92.3185L64.395 86.1703Z" fill="#A78BFA"/>
<path id="Vector_3" d="M64.395 86.1703C64.9496 85.5417 65.6676 85.0906 66.4637 84.8707C67.2598 84.6508 68.1003 84.6715 68.8854 84.9302L76.5725 87.4544C76.993 87.5932 77.4371 87.6397 77.876 87.5911C78.315 87.5424 78.7393 87.3996 79.1216 87.1717C79.5038 86.9439 79.8357 86.6362 80.0958 86.2683C80.3558 85.9004 80.5384 85.4804 80.6317 85.0355L81.4827 81.0049L104.266 114.557L91.1328 113.653L87.4792 126.681L61.896 88.9988L64.395 86.1703Z" fill="#A78BFA"/>
</g>
<path id="Vector_4" d="M68.1673 89.7714L75.5424 92.1932C76.6025 92.5417 77.7214 92.6581 78.8275 92.5349C79.9337 92.4117 81.0027 92.0516 81.9662 91.4778C82.9296 90.904 83.7662 90.1291 84.4224 89.2026C85.0786 88.2761 85.5399 87.2186 85.7769 86.0977L87.4278 78.3056L88.9936 77.9546L86.0066 73.4414L85.6435 73.5233C84.8397 73.706 84.1034 74.1219 83.5213 74.7221C82.9393 75.3222 82.5359 76.0815 82.3588 76.9104L80.6341 85.0359C80.5408 85.4809 80.3582 85.9008 80.0982 86.2687C79.8381 86.6366 79.5063 86.9444 79.124 87.1722C78.7417 87.4 78.3174 87.5428 77.8785 87.5915C77.4395 87.6402 76.9955 87.5936 76.575 87.4548L68.8878 84.9306C68.1028 84.6719 67.2622 84.6513 66.4661 84.8711C65.67 85.091 64.952 85.5421 64.3974 86.1708L58.9625 92.3132C58.7296 92.6213 58.4317 92.8705 58.0913 93.042C57.7509 93.2134 57.377 93.3025 56.9982 93.3025C56.6194 93.3025 56.2455 93.2134 55.9051 93.042C55.5647 92.8705 55.2667 92.6213 55.0338 92.3132L49.6018 86.1708C49.1986 85.712 48.7071 85.345 48.1586 85.0932C47.6101 84.8413 47.0167 84.7103 46.4163 84.7083C45.9733 84.708 45.5331 84.7791 45.1114 84.9189L37.4243 87.4431C37.0036 87.5819 36.5594 87.6285 36.1202 87.5798C35.6811 87.5312 35.2566 87.3884 34.8741 87.1606C34.4916 86.9328 34.1595 86.6251 33.8992 86.2572C33.6388 85.8893 33.4559 85.4693 33.3623 85.0242L31.6404 76.8987C31.4604 76.071 31.0548 75.3136 30.4714 74.7156C29.8879 74.1176 29.1509 73.7039 28.3472 73.5233L27.9869 73.4414L25.0142 77.94L26.6707 78.3114L28.3216 86.1035C28.5592 87.2242 29.0211 88.2815 29.6778 89.2075C30.3344 90.1336 31.1714 90.908 32.1351 91.4813C33.0988 92.0545 34.1679 92.414 35.2741 92.5366C36.3803 92.6592 37.4991 92.5422 38.5589 92.1932L45.9142 89.7509L51.142 95.6681C52.0404 96.666 53.1653 97.4178 54.4155 97.8559L56.9968 93.957L59.6008 97.8823C60.8833 97.4495 62.038 96.6875 62.9565 95.6681L68.1673 89.7714Z" fill="#7C3AED"/>
<path id="Vector_5" d="M49.5998 86.1704C49.1966 85.7117 48.7051 85.3446 48.1566 85.0928C47.6081 84.841 47.0147 84.7099 46.4143 84.708C45.9713 84.7077 45.5311 84.7788 45.1094 84.9186L37.4223 87.4428C37.0016 87.5816 36.5574 87.6282 36.1182 87.5795C35.679 87.5309 35.2546 87.3881 34.8721 87.1603C34.4896 86.9325 34.1575 86.6248 33.8972 86.2569C33.6368 85.8889 33.4539 85.469 33.3603 85.0239L32.5093 80.9933L9.7229 114.557L22.8535 113.653L26.5099 126.681L52.0988 88.9989L49.5998 86.1704ZM81.4888 81.005L80.6378 85.0356C80.5445 85.4806 80.3619 85.9005 80.1018 86.2684C79.8418 86.6363 79.5099 86.944 79.1277 87.1718C78.7454 87.3997 78.3211 87.5425 77.8821 87.5912C77.4431 87.6398 76.9991 87.5933 76.5786 87.4545L68.8914 84.9303C68.1064 84.6716 67.2658 84.6509 66.4698 84.8708C65.6737 85.0907 64.9556 85.5418 64.4011 86.1704L61.9021 88.9989L87.491 126.681L91.1445 113.653L104.278 114.557L81.4888 81.005Z" fill="#8B5CF6"/>
<path id="Vector_6" d="M52.0986 88.9989L49.5996 86.1704C49.1964 85.7117 48.7049 85.3446 48.1564 85.0928C47.6079 84.841 47.0145 84.7099 46.4141 84.708C45.9711 84.7077 45.5309 84.7788 45.1092 84.9186L37.4221 87.4428C37.0014 87.5816 36.5572 87.6282 36.118 87.5795C35.6788 87.5309 35.2544 87.3881 34.8719 87.1603C34.4894 86.9325 34.1573 86.6248 33.897 86.2569C33.6366 85.8889 33.4537 85.469 33.3601 85.0239L32.5091 80.9933L28.5378 86.8432C29.1807 88.9216 30.5969 90.6522 32.4757 91.6552C34.3546 92.6581 36.5426 92.8515 38.5595 92.1929L45.9148 89.7506L49.123 93.3834L52.1014 88.9959L52.0986 88.9989ZM75.5402 92.1929C77.5383 92.8492 79.7065 92.6693 81.577 91.692C83.4476 90.7147 84.8707 89.0184 85.5392 86.9689L81.4886 81.005L80.6376 85.0356C80.5443 85.4805 80.3617 85.9005 80.1016 86.2684C79.8416 86.6363 79.5097 86.944 79.1275 87.1718C78.7452 87.3997 78.3209 87.5425 77.8819 87.5912C77.4429 87.6398 76.9989 87.5933 76.5784 87.4545L68.8912 84.9303C68.1062 84.6716 67.2656 84.6509 66.4696 84.8708C65.6735 85.0907 64.9554 85.5418 64.4009 86.1704L61.9019 88.9989L64.9172 93.4419L68.1679 89.7652L75.5402 92.1929Z" fill="#A78BFA"/>
<path id="Vector_7" d="M86.1941 19.8707L94.077 21.6462C94.5851 21.7612 95.0644 21.9843 95.4841 22.3011C95.9039 22.6179 96.255 23.0216 96.515 23.4862C96.775 23.9508 96.9382 24.4662 96.9941 24.9995C97.05 25.5328 96.9975 26.0723 96.8399 26.5835L94.3919 34.5101C94.1749 35.2127 94.1579 35.9649 94.3429 36.6772C94.5279 37.3895 94.9072 38.0322 95.4358 38.5289L101.393 44.1302C101.777 44.4915 102.085 44.9317 102.295 45.4225C102.505 45.9133 102.614 46.444 102.614 46.9806C102.614 47.5172 102.505 48.0479 102.295 48.5387C102.085 49.0295 101.777 49.4697 101.393 49.8309L95.4358 55.4351C94.9069 55.9317 94.5274 56.5744 94.3424 57.2868C94.1573 57.9992 94.1745 58.7514 94.3919 59.454L96.8399 67.3806C96.9975 67.8916 97.05 68.4309 96.9941 68.964C96.9381 69.4972 96.7749 70.0124 96.5149 70.4768C96.2549 70.9411 95.9037 71.3445 95.484 71.661C95.0642 71.9775 94.585 72.2003 94.077 72.315L86.1941 74.0934C85.4953 74.251 84.855 74.6119 84.3492 75.1335C83.8434 75.6551 83.4933 76.3153 83.3405 77.0359L81.6159 85.1614C81.5053 85.6857 81.2898 86.1804 80.9831 86.6138C80.6763 87.0472 80.2852 87.4098 79.8347 87.6783C79.3842 87.9468 78.8842 88.1152 78.3669 88.1729C77.8496 88.2306 77.3263 88.1762 76.8305 88.0132L69.1434 85.489C68.462 85.2641 67.7323 85.246 67.0413 85.4369C66.3503 85.6277 65.727 86.0194 65.2459 86.5654L59.811 92.7077C59.4608 93.1044 59.0342 93.4213 58.5585 93.6382C58.0827 93.855 57.5683 93.967 57.0481 93.967C56.5279 93.967 56.0135 93.855 55.5378 93.6382C55.062 93.4213 54.6354 93.1044 54.2853 92.7077L48.8504 86.5654C48.3692 86.0194 47.746 85.6277 47.0549 85.4369C46.3639 85.246 45.6342 85.2641 44.9529 85.489L37.2657 88.0132C36.7699 88.1762 36.2466 88.2306 35.7293 88.1729C35.212 88.1152 34.7121 87.9468 34.2615 87.6783C33.811 87.4098 33.4199 87.0472 33.1132 86.6138C32.8064 86.1804 32.5909 85.6857 32.4804 85.1614L30.7557 77.0359C30.6029 76.3153 30.2528 75.6551 29.747 75.1335C29.2412 74.6119 28.6009 74.251 27.9021 74.0934L20.0192 72.315C19.5112 72.2003 19.032 71.9775 18.6122 71.661C18.1925 71.3445 17.8414 70.9411 17.5813 70.4768C17.3213 70.0124 17.1581 69.4972 17.1022 68.964C17.0462 68.4309 17.0987 67.8916 17.2564 67.3806L19.7043 59.454C19.9217 58.7514 19.9389 57.9992 19.7538 57.2868C19.5688 56.5744 19.1893 55.9317 18.6605 55.4351L12.7036 49.8309C12.3189 49.4697 12.0115 49.0295 11.8011 48.5387C11.5908 48.0479 11.4822 47.5172 11.4822 46.9806C11.4822 46.444 11.5908 45.9133 11.8011 45.4225C12.0115 44.9317 12.3189 44.4915 12.7036 44.1302L18.6605 38.5289C19.189 38.0322 19.5683 37.3895 19.7533 36.6772C19.9383 35.9649 19.9213 35.2127 19.7043 34.5101L17.2564 26.5835C17.0987 26.0723 17.0462 25.5328 17.1021 24.9995C17.1581 24.4662 17.3212 23.9508 17.5812 23.4862C17.8412 23.0216 18.1923 22.6179 18.6121 22.3011C19.0319 21.9843 19.5111 21.7612 20.0192 21.6462L27.9021 19.8707C28.6009 19.7131 29.2412 19.3521 29.747 18.8306C30.2528 18.309 30.6029 17.6488 30.7557 16.9282L32.4804 8.79979C32.5912 8.27575 32.807 7.78136 33.1139 7.34827C33.4207 6.91519 33.8119 6.55296 34.2624 6.28477C34.7129 6.01659 35.2127 5.84836 35.7299 5.79087C36.247 5.73337 36.7701 5.78788 37.2657 5.95089L44.9529 8.47512C45.6344 8.69851 46.3636 8.71586 47.0544 8.52509C47.7451 8.33433 48.3684 7.94345 48.8504 7.39874L54.2853 1.25635C54.6359 0.86047 55.0626 0.54428 55.5383 0.327944C56.014 0.111609 56.5282 -0.00012207 57.0481 -0.00012207C57.568 -0.00012207 58.0822 0.111609 58.5579 0.327944C59.0336 0.54428 59.4604 0.86047 59.811 1.25635L65.2459 7.39874C65.7278 7.94345 66.3511 8.33433 67.0418 8.52509C67.7326 8.71586 68.4619 8.69851 69.1434 8.47512L76.8305 5.95089C77.3261 5.78788 77.8492 5.73337 78.3664 5.79087C78.8835 5.84836 79.3833 6.01659 79.8338 6.28477C80.2843 6.55296 80.6755 6.91519 80.9824 7.34827C81.2892 7.78136 81.505 8.27575 81.6159 8.79979L83.3405 16.9282C83.4933 17.6488 83.8434 18.309 84.3492 18.8306C84.855 19.3521 85.4953 19.7131 86.1941 19.8707Z" fill="#6D28D9"/>
<path id="Vector_8" d="M86.5777 46.9938C86.5716 52.636 85.0452 58.1655 82.169 62.9653C79.2927 67.7651 75.1796 71.6464 70.2887 74.1762C65.3978 76.706 59.9213 77.7848 54.4705 77.2921C49.0196 76.7995 43.8087 74.7548 39.4191 71.3863C35.0295 68.0177 31.634 63.4578 29.6113 58.2152C27.5887 52.9727 27.0185 47.2537 27.9643 41.6964C28.9101 36.1392 31.3348 30.9622 34.9678 26.7431C38.6009 22.524 43.2993 19.4288 48.5389 17.8028C51.2982 16.942 54.166 16.5083 57.0487 16.5158C60.9288 16.5162 64.7708 17.305 68.3551 18.8372C71.9394 20.3693 75.1957 22.6148 77.9381 25.4453C80.6804 28.2757 82.8549 31.6356 84.3373 35.3331C85.8198 39.0305 86.581 42.9929 86.5777 46.9938Z" fill="#A78BFA"/>
<path id="Vector_9" d="M86.577 46.9938C86.5798 52.1513 85.3109 57.2249 82.8894 61.7377C80.4679 66.2505 76.9735 70.0544 72.7344 72.7918C69.9752 73.6526 67.1074 74.0863 64.2246 74.0788C57.8109 74.0826 51.5703 71.9337 46.4457 67.9567C41.3212 63.9798 37.5912 58.391 35.8195 52.0348C34.0478 45.6787 34.3306 38.9006 36.6252 32.7248C38.9197 26.5491 43.1014 21.3112 48.5383 17.8028C51.2975 16.942 54.1653 16.5083 57.0481 16.5158C60.9281 16.5162 64.7701 17.305 68.3544 18.8372C71.9387 20.3693 75.1951 22.6148 77.9374 25.4453C80.6797 28.2757 82.8542 31.6356 84.3366 35.333C85.8191 39.0305 86.5804 42.9929 86.577 46.9938Z" fill="#8B5CF6"/>
<path id="Vector_10" d="M59.1982 65.7807C58.6339 65.7807 58.0928 65.5496 57.6939 65.1382C57.2949 64.7268 57.0707 64.1688 57.0707 63.587V36.385L51.5848 40.2488C51.3542 40.4178 51.0933 40.5377 50.8173 40.6015C50.5413 40.6653 50.2557 40.6717 49.9772 40.6203C49.6988 40.5689 49.4331 40.4608 49.1956 40.3022C48.9582 40.1437 48.7538 39.9379 48.5945 39.6969C48.4351 39.456 48.3239 39.1846 48.2674 38.8988C48.211 38.613 48.2103 38.3185 48.2656 38.0324C48.3208 37.7464 48.4309 37.4745 48.5892 37.2328C48.7476 36.9911 48.9511 36.7844 49.1878 36.6248L57.9983 30.4181C58.3181 30.1929 58.6914 30.0619 59.0781 30.0394C59.4647 30.0168 59.85 30.1035 60.1923 30.2901C60.5347 30.4767 60.8212 30.7562 61.0209 31.0983C61.2206 31.4404 61.326 31.8322 61.3256 32.2316V63.587C61.3256 64.1688 61.1015 64.7268 60.7025 65.1382C60.3035 65.5496 59.7624 65.7807 59.1982 65.7807Z" fill="#F5F3FF"/>
</g>
</svg>
