<svg width="114" height="102" viewBox="0 0 114 102" fill="none" xmlns="http://www.w3.org/2000/svg">
<g id="Group">
<path id="Vector" d="M76.7143 93.0997V102H37.2809V93.0997H46.6884L48.3456 78.0523L48.7356 74.4684V74.3972H65.2352L65.2596 74.4684L65.6496 78.0523L67.3068 93.0997H76.7143Z" fill="#8B5CF6"/>
<path id="Vector_2" d="M65.6497 78.0523H48.3458L48.7358 74.4684V74.3972H65.2354L65.2598 74.4684L65.6497 78.0523Z" fill="#7C3AED"/>
<path id="Vector_3" d="M67.2971 93.0925H37.276V101.99H76.7192V93.0925H67.2971Z" fill="#A78BFA"/>
<path id="Vector_4" d="M109.64 0H4.35471C3.28729 0.00251391 2.26447 0.417216 1.5106 1.15314C0.756734 1.88907 0.333371 2.88613 0.333374 3.92563V70.538C0.333371 71.5775 0.756734 72.5745 1.5106 73.3105C2.26447 74.0464 3.28729 74.4611 4.35471 74.4636H109.397C109.958 74.4639 110.513 74.3566 111.031 74.1477C111.549 73.9389 112.02 73.6326 112.417 73.2464C112.813 72.8602 113.128 72.4017 113.342 71.897C113.557 71.3924 113.667 70.8515 113.667 70.3054V3.92563C113.667 2.88531 113.243 1.88753 112.488 1.15147C111.733 0.415405 110.709 0.00125795 109.64 0Z" fill="#C4B5FD"/>
<path id="Vector_5" d="M7.81543 6.80249H106.18V60.9876H7.81543V6.80249Z" fill="#4C1D95"/>
<path id="Vector_6" d="M106.18 6.80249V56.0509H29.8961C26.0313 56.049 22.3254 54.5531 19.5926 51.8918C16.8598 49.2305 15.3237 45.6215 15.3218 41.8579V6.80249H106.18Z" fill="#6D28D9"/>
<path id="Vector_7" d="M91.3129 44.9194C91.3441 44.8434 91.385 44.7716 91.4348 44.7058V44.682C92.121 43.5421 92.6768 42.3324 93.0921 41.0744C94.2226 37.5517 94.2008 33.7737 93.0296 30.2636C91.8584 26.7534 89.5958 23.6845 86.5549 21.4817C83.5139 19.2789 79.8451 18.0511 76.056 17.9682C72.267 17.8853 68.5453 18.9515 65.4058 21.0191C63.2375 22.436 61.4154 24.2995 60.0684 26.4779C58.821 28.474 57.9898 30.6899 57.6222 32.999C57.2545 35.3081 57.3577 37.6651 57.9258 39.9354C58.4939 42.2056 59.5158 44.3446 60.933 46.2301C62.3503 48.1156 64.1352 49.7106 66.1857 50.9241C69.1013 52.5843 72.4109 53.4759 75.7881 53.5112C77.6979 53.5251 79.5953 53.2118 81.3936 52.5855C82.6728 52.1308 83.9118 51.5752 85.0981 50.9241L85.1225 50.9479L90.3624 56.0507H102.719C97.4059 50.9004 91.3129 44.9431 91.3129 44.9194Z" fill="#4C1D95"/>
<path id="Vector_8" d="M111.542 67.6139C111.355 68.3545 110.958 69.029 110.396 69.5601C109.575 70.35 108.467 70.793 107.313 70.793C106.159 70.793 105.051 70.35 104.23 69.5601L95.432 60.9921H106.18V59.4493L110.396 63.5554C110.94 64.0716 111.334 64.7198 111.535 65.4332C111.736 66.1465 111.739 66.8993 111.542 67.6139Z" fill="#DDD6FE"/>
<path id="Vector_9" d="M106.18 59.4447V60.9874H95.4319L90.3625 56.0507H102.719C103.938 57.2374 105.132 58.4003 106.18 59.4447Z" fill="#5B21B6"/>
<path id="Vector_10" d="M112.382 61.7376L93.2798 43.1348C95.5855 39.4188 96.4144 35.0095 95.6101 30.7391C94.8058 26.4687 92.424 22.6329 88.9143 19.9557C85.4046 17.2785 81.0098 15.9452 76.5598 16.2075C72.1097 16.4699 67.9122 18.3097 64.7598 21.3797C61.6073 24.4497 59.7181 28.5374 59.4487 32.871C59.1792 37.2047 60.5483 41.4845 63.2975 44.9024C66.0466 48.3203 69.9855 50.6398 74.3706 51.4231C78.7556 52.2063 83.2834 51.3991 87.0992 49.1538L106.202 67.759C107.022 68.5567 108.133 69.0048 109.292 69.0048C110.451 69.0048 111.563 68.5567 112.382 67.759C113.202 66.9605 113.663 65.8775 113.663 64.7483C113.663 63.6191 113.202 62.5361 112.382 61.7376Z" fill="#A78BFA"/>
<path id="Vector_11" d="M77.6455 51.7098C87.7325 51.7098 95.9097 43.7465 95.9097 33.9234C95.9097 24.1002 87.7325 16.137 77.6455 16.137C67.5585 16.137 59.3813 24.1002 59.3813 33.9234C59.3813 43.7465 67.5585 51.7098 77.6455 51.7098Z" fill="#8B5CF6"/>
<path id="Vector_12" d="M112.382 61.7373L93.2652 43.1155C92.5 44.3401 91.5896 45.4729 90.5527 46.4905C90.0514 46.9772 89.5216 47.4352 88.9661 47.8623L107.203 65.6179C108.023 66.4154 109.134 66.8635 110.293 66.8635C111.451 66.8635 112.562 66.4154 113.382 65.6179L113.611 65.3805C113.714 64.722 113.656 64.0491 113.443 63.4163C113.229 62.7834 112.866 62.2083 112.382 61.7373Z" fill="#C4B5FD"/>
<path id="Vector_13" d="M77.6453 16.137C73.2931 16.1326 69.0835 17.6484 65.7812 20.4091C63.4694 24.0121 62.5583 28.3019 63.2127 32.5024C63.8671 36.7028 66.0439 40.5364 69.349 43.3094C72.6542 46.0824 76.8695 47.6117 81.2321 47.6206C85.5947 47.6295 89.8165 46.1173 93.1335 43.3577C94.8635 40.6652 95.8215 37.5707 95.9081 34.3957C95.9947 31.2206 95.2067 28.081 93.626 25.3028C92.0453 22.5247 89.7295 20.2094 86.9192 18.5975C84.109 16.9857 80.9068 16.1361 77.6453 16.137Z" fill="#C4B5FD"/>
</g>
</svg>
