<svg width="16" height="16" viewBox="0 0 16 16" fill="none" xmlns="http://www.w3.org/2000/svg">
<g id="Icon / Quotes">
<path id="Vector" d="M9.57338 9.48668C9.12772 9.84599 8.57251 10.0419 8.00004 10.0419C7.42758 10.0419 6.87237 9.84599 6.42671 9.48668C6.29057 9.37352 6.11505 9.31908 5.93876 9.33533C5.76248 9.35158 5.59987 9.4372 5.48671 9.57334C5.37355 9.70949 5.31911 9.88501 5.33536 10.0613C5.35162 10.2376 5.43723 10.4002 5.57338 10.5133C6.25427 11.0817 7.11309 11.3931 8.00004 11.3931C8.887 11.3931 9.74582 11.0817 10.4267 10.5133C10.5629 10.4002 10.6485 10.2376 10.6647 10.0613C10.681 9.88501 10.6265 9.70949 10.5134 9.57334C10.4573 9.50593 10.3886 9.45022 10.311 9.40938C10.2335 9.36854 10.1486 9.34338 10.0613 9.33533C9.88504 9.31908 9.70952 9.37352 9.57338 9.48668ZM6.14004 7.02668C6.26495 7.15084 6.43392 7.22054 6.61004 7.22054C6.78617 7.22054 6.95514 7.15084 7.08004 7.02668C7.20421 6.90177 7.27391 6.7328 7.27391 6.55668C7.27391 6.38055 7.20421 6.21159 7.08004 6.08668C6.69852 5.72467 6.19264 5.52286 5.66671 5.52286C5.14078 5.52286 4.6349 5.72467 4.25338 6.08668C4.18359 6.14644 4.12691 6.21999 4.08689 6.3027C4.04688 6.38541 4.02439 6.4755 4.02084 6.56731C4.0173 6.65912 4.03277 6.75068 4.06629 6.83623C4.0998 6.92178 4.15064 6.99947 4.21561 7.06444C4.28058 7.12941 4.35828 7.18025 4.44383 7.21377C4.52938 7.24729 4.62093 7.26276 4.71275 7.25921C4.80456 7.25566 4.89465 7.23318 4.97736 7.19316C5.06007 7.15314 5.13361 7.09646 5.19338 7.02668C5.25535 6.96419 5.32909 6.9146 5.41033 6.88075C5.49157 6.8469 5.5787 6.82948 5.66671 6.82948C5.75472 6.82948 5.84186 6.8469 5.92309 6.88075C6.00433 6.9146 6.07807 6.96419 6.14004 7.02668ZM11.7467 6.08668C11.3652 5.72467 10.8593 5.52286 10.3334 5.52286C9.80745 5.52286 9.30156 5.72467 8.92004 6.08668C8.81083 6.21421 8.75376 6.37826 8.76024 6.54605C8.76672 6.71383 8.83627 6.87299 8.955 6.99172C9.07373 7.11045 9.23289 7.18 9.40067 7.18648C9.56846 7.19297 9.73251 7.13589 9.86004 7.02668C9.92202 6.96419 9.99575 6.9146 10.077 6.88075C10.1582 6.8469 10.2454 6.82948 10.3334 6.82948C10.4214 6.82948 10.5085 6.8469 10.5898 6.88075C10.671 6.9146 10.7447 6.96419 10.8067 7.02668C10.9316 7.15084 11.1006 7.22054 11.2767 7.22054C11.4528 7.22054 11.6218 7.15084 11.7467 7.02668C11.8709 6.90177 11.9406 6.7328 11.9406 6.55668C11.9406 6.38055 11.8709 6.21159 11.7467 6.08668ZM8.00004 1.33334C6.6815 1.33334 5.39257 1.72434 4.29624 2.45688C3.19991 3.18942 2.34543 4.23061 1.84085 5.44879C1.33626 6.66696 1.20424 8.00741 1.46148 9.30061C1.71871 10.5938 2.35365 11.7817 3.286 12.7141C4.21835 13.6464 5.40624 14.2813 6.69944 14.5386C7.99265 14.7958 9.33309 14.6638 10.5513 14.1592C11.7694 13.6546 12.8106 12.8001 13.5432 11.7038C14.2757 10.6075 14.6667 9.31855 14.6667 8.00001C14.6667 7.12453 14.4943 6.25762 14.1592 5.44879C13.8242 4.63995 13.3331 3.90502 12.7141 3.28596C12.095 2.66691 11.3601 2.17584 10.5513 1.84081C9.74243 1.50578 8.87552 1.33334 8.00004 1.33334ZM8.00004 13.3333C6.94521 13.3333 5.91406 13.0205 5.037 12.4345C4.15994 11.8485 3.47635 11.0155 3.07269 10.041C2.66902 9.06645 2.5634 7.99409 2.76919 6.95953C2.97498 5.92496 3.48293 4.97465 4.22881 4.22877C4.97469 3.48289 5.925 2.97494 6.95956 2.76916C7.99413 2.56337 9.06648 2.66899 10.041 3.07265C11.0156 3.47632 11.8485 4.15991 12.4345 5.03697C13.0206 5.91403 13.3334 6.94518 13.3334 8.00001C13.3334 9.4145 12.7715 10.7711 11.7713 11.7712C10.7711 12.7714 9.41453 13.3333 8.00004 13.3333Z" fill="#F9FAFB"/>
</g>
</svg>
